<svg width="78" height="78" viewBox="0 0 78 78" fill="none" xmlns="http://www.w3.org/2000/svg">
<g id="Frame">
<path id="Vector" d="M40.4467 19.8339C38.9244 15.0296 35.4985 10.959 31.0489 8.66653C31.0203 8.45979 30.9391 8.26386 30.8129 8.09761C30.6867 7.93136 30.5199 7.80037 30.3284 7.71725C30.137 7.63413 29.9274 7.60166 29.7198 7.62298C29.5121 7.6443 29.3135 7.71868 29.143 7.83898C28.9724 7.95927 28.8357 8.12143 28.7459 8.30985C28.6562 8.49828 28.6164 8.70662 28.6304 8.91486C28.6445 9.12309 28.7119 9.32421 28.8262 9.49886C28.9404 9.67351 29.0977 9.81582 29.2829 9.91209C29.566 11.9852 29.486 14.0918 29.0465 16.1375C27.2293 24.5127 19.7108 30.5918 11.1698 30.5918C9.95841 30.5918 8.73844 30.4675 7.54162 30.2226C6.6738 30.0389 5.82109 29.79 4.99078 29.4779C4.78145 29.4018 4.55527 29.3844 4.33677 29.4277C4.11827 29.471 3.91579 29.5733 3.7513 29.7235C3.5868 29.8736 3.46655 30.066 3.40361 30.2797C3.34066 30.4933 3.33741 30.7202 3.39422 30.9355C4.53893 35.2513 7.16223 39.0284 10.8067 41.6081C10.9885 41.7374 11.2025 41.8139 11.425 41.8294C11.6476 41.8449 11.8701 41.7987 12.0681 41.6959C13.9422 40.7228 16.0233 40.2161 18.135 40.2188H29.25C29.5732 40.2188 29.8832 40.0903 30.1118 39.8618C30.3403 39.6332 30.4688 39.3232 30.4688 39V33.9788C30.4688 28.2043 34.1616 23.1343 39.6581 21.3622C39.9649 21.2635 40.2201 21.0473 40.3679 20.7609C40.5157 20.4745 40.544 20.1412 40.4467 19.8339Z" fill="#FBB03B"/>
<path id="Vector_2" d="M59.865 36.5625H59.7188V33.9787C59.7188 25.3232 52.6768 18.2812 44.0212 18.2812H43.7288C35.0732 18.2812 28.0312 25.3232 28.0312 33.9787V37.7812H18.135C9.47944 37.7812 2.4375 44.8232 2.4375 53.4788V53.7712C2.4375 62.4268 9.47944 69.4688 18.135 69.4688H59.865C68.5206 69.4688 75.5625 62.4268 75.5625 53.7712V52.26C75.5625 43.6044 68.5206 36.5625 59.865 36.5625Z" fill="#E6E6E6"/>
<path id="Vector_3" d="M69.2981 39.7422C70.2125 41.7605 70.6861 43.9505 70.6875 46.1662V47.6775C70.6875 56.3331 63.6456 63.375 54.99 63.375H13.26C9.85275 63.3737 6.53963 62.2569 3.82687 60.1953C6.28753 65.6528 11.7695 69.4687 18.135 69.4687H59.865C68.5206 69.4687 75.5625 62.4268 75.5625 53.7712V52.26C75.5625 47.1461 73.0933 42.6112 69.2981 39.7422Z" fill="#CCCCCC"/>
</g>
</svg>
