<svg width="43" height="43" viewBox="0 0 43 43" fill="none" xmlns="http://www.w3.org/2000/svg">
<path id="search" d="M42.1707 38.7894L34.0746 30.7172C36.6868 27.3894 38.1041 23.28 38.0988 19.0494C38.0988 15.2818 36.9816 11.5988 34.8884 8.46614C32.7953 5.33348 29.8201 2.89186 26.3393 1.45006C22.8585 0.00825375 19.0283 -0.368988 15.3331 0.366038C11.6378 1.10106 8.24356 2.91534 5.57945 5.57945C2.91534 8.24356 1.10106 11.6378 0.366038 15.3331C-0.368988 19.0283 0.00825375 22.8585 1.45006 26.3393C2.89186 29.8201 5.33348 32.7953 8.46614 34.8884C11.5988 36.9816 15.2818 38.0988 19.0494 38.0988C23.28 38.1041 27.3894 36.6868 30.7172 34.0746L38.7894 42.1707C39.0107 42.3938 39.2741 42.571 39.5643 42.6919C39.8544 42.8128 40.1657 42.875 40.48 42.875C40.7944 42.875 41.1056 42.8128 41.3958 42.6919C41.6859 42.571 41.9493 42.3938 42.1707 42.1707C42.3938 41.9493 42.571 41.6859 42.6919 41.3958C42.8128 41.1056 42.875 40.7944 42.875 40.48C42.875 40.1657 42.8128 39.8544 42.6919 39.5643C42.571 39.2741 42.3938 39.0107 42.1707 38.7894ZM4.76236 19.0494C4.76236 16.2237 5.60028 13.4615 7.17017 11.112C8.74005 8.76246 10.9714 6.93125 13.582 5.8499C16.1926 4.76855 19.0653 4.48561 21.8367 5.03688C24.6081 5.58815 27.1538 6.94886 29.1519 8.94695C31.15 10.945 32.5107 13.4907 33.062 16.2622C33.6132 19.0336 33.3303 21.9062 32.249 24.5168C31.1676 27.1275 29.3364 29.3588 26.9869 30.9287C24.6374 32.4986 21.8751 33.3365 19.0494 33.3365C15.2603 33.3365 11.6263 31.8312 8.94695 29.1519C6.2676 26.4726 4.76236 22.8386 4.76236 19.0494Z" fill="#E4EDFF"/>
</svg>
