<svg width="74" height="71" viewBox="0 0 74 71" fill="none" xmlns="http://www.w3.org/2000/svg">
<g id="Wind">
<path id="Vector" d="M15.4167 53.25C14.8069 53.25 14.2107 53.4235 13.7037 53.7486C13.1966 54.0736 12.8014 54.5357 12.5681 55.0762C12.3347 55.6168 12.2736 56.2116 12.3926 56.7855C12.5116 57.3593 12.8052 57.8865 13.2364 58.3002C13.6677 58.7139 14.2171 58.9957 14.8152 59.1098C15.4133 59.224 16.0332 59.1654 16.5966 58.9415C17.16 58.7176 17.6416 58.3384 17.9804 57.8519C18.3192 57.3654 18.5 56.7934 18.5 56.2083C18.5 55.4237 18.1752 54.6713 17.5969 54.1165C17.0187 53.5617 16.2344 53.25 15.4167 53.25ZM58.5834 41.4167H37C36.1823 41.4167 35.398 41.7283 34.8198 42.2831C34.2415 42.8379 33.9167 43.5904 33.9167 44.375C33.9167 45.1596 34.2415 45.9121 34.8198 46.4669C35.398 47.0217 36.1823 47.3333 37 47.3333H58.5834C59.4011 47.3333 60.1854 47.645 60.7636 48.1998C61.3419 48.7546 61.6667 49.5071 61.6667 50.2917C61.6667 51.0763 61.3419 51.8287 60.7636 52.3835C60.1854 52.9383 59.4011 53.25 58.5834 53.25C57.7656 53.25 56.9814 53.5617 56.4031 54.1165C55.8249 54.6713 55.5 55.4237 55.5 56.2083C55.5 56.9929 55.8249 57.7454 56.4031 58.3002C56.9814 58.855 57.7656 59.1667 58.5834 59.1667C61.0366 59.1667 63.3894 58.2316 65.1241 56.5672C66.8588 54.9029 67.8334 52.6455 67.8334 50.2917C67.8334 47.9379 66.8588 45.6805 65.1241 44.0161C63.3894 42.3517 61.0366 41.4167 58.5834 41.4167ZM43.1667 32.5417C43.1667 33.3263 43.4915 34.0787 44.0698 34.6335C44.648 35.1883 45.4323 35.5 46.25 35.5H58.5834C61.0366 35.5 63.3894 34.565 65.1241 32.9006C66.8588 31.2362 67.8334 28.9788 67.8334 26.625C67.8334 25.8404 67.5085 25.0879 66.9303 24.5331C66.352 23.9783 65.5678 23.6667 64.75 23.6667C63.9323 23.6667 63.148 23.9783 62.5698 24.5331C61.9915 25.0879 61.6667 25.8404 61.6667 26.625C61.6667 27.4096 61.3419 28.1621 60.7636 28.7169C60.1854 29.2717 59.4011 29.5833 58.5834 29.5833H46.25C45.4323 29.5833 44.648 29.895 44.0698 30.4498C43.4915 31.0046 43.1667 31.7571 43.1667 32.5417ZM30.8334 44.375C30.8334 43.5904 30.5085 42.8379 29.9303 42.2831C29.352 41.7283 28.5678 41.4167 27.75 41.4167H18.5C16.8645 41.4167 15.296 40.7933 14.1395 39.6837C12.9831 38.5741 12.3334 37.0692 12.3334 35.5C12.3334 33.9308 12.9831 32.4259 14.1395 31.3163C15.296 30.2067 16.8645 29.5833 18.5 29.5833C19.3178 29.5833 20.102 29.2717 20.6803 28.7169C21.2585 28.1621 21.5834 27.4096 21.5834 26.625C21.5912 23.1261 22.8916 19.7432 25.2534 17.0772C27.6151 14.4113 30.8854 12.6349 34.4833 12.0637C38.0811 11.4925 41.7734 12.1635 44.9044 13.9574C48.0353 15.7514 50.4021 18.5521 51.5842 21.8621C51.8459 22.6075 52.4054 23.2226 53.1398 23.5721C53.8742 23.9216 54.7232 23.9769 55.5 23.7258C56.2769 23.4748 56.918 22.9379 57.2823 22.2333C57.6466 21.5287 57.7042 20.7141 57.4425 19.9687C55.8725 15.539 52.7852 11.75 48.6837 9.21897C44.5823 6.68798 39.7083 5.56422 34.8561 6.0308C30.0038 6.49739 25.4593 8.52681 21.9629 11.7884C18.4664 15.05 16.2243 19.3515 15.6017 23.9921C12.662 24.6675 10.0832 26.3553 8.35505 28.7348C6.62689 31.1144 5.86972 34.02 6.22732 36.8999C6.58493 39.7798 8.0324 42.4334 10.2949 44.3568C12.5573 46.2802 15.4772 47.3394 18.5 47.3333H27.75C28.5678 47.3333 29.352 47.0217 29.9303 46.4669C30.5085 45.9121 30.8334 45.1596 30.8334 44.375ZM30.8334 32.5417C30.8334 33.1268 31.0142 33.6987 31.353 34.1852C31.6918 34.6717 32.1733 35.0509 32.7368 35.2748C33.3002 35.4987 33.9201 35.5573 34.5182 35.4432C35.1163 35.329 35.6657 35.0473 36.0969 34.6335C36.5282 34.2198 36.8218 33.6927 36.9408 33.1188C37.0598 32.5449 36.9987 31.9501 36.7653 31.4096C36.532 30.869 36.1368 30.407 35.6297 30.0819C35.1227 29.7568 34.5265 29.5833 33.9167 29.5833C33.0989 29.5833 32.3147 29.895 31.7365 30.4498C31.1582 31.0046 30.8334 31.7571 30.8334 32.5417ZM43.1667 53.25H27.75C26.9323 53.25 26.148 53.5617 25.5698 54.1165C24.9915 54.6713 24.6667 55.4237 24.6667 56.2083C24.6667 56.9929 24.9915 57.7454 25.5698 58.3002C26.148 58.855 26.9323 59.1667 27.75 59.1667H43.1667C43.9844 59.1667 44.7687 59.4783 45.3469 60.0331C45.9252 60.5879 46.25 61.3404 46.25 62.125C46.25 62.9096 46.5749 63.6621 47.1531 64.2169C47.7314 64.7717 48.5156 65.0833 49.3334 65.0833C50.1511 65.0833 50.9354 64.7717 51.5136 64.2169C52.0919 63.6621 52.4167 62.9096 52.4167 62.125C52.4167 59.7712 51.4421 57.5138 49.7074 55.8494C47.9727 54.185 45.6199 53.25 43.1667 53.25Z" fill="#020914"/>
</g>
</svg>
